<svg version="1.1" xmlns="http://www.w3.org/2000/svg" viewBox="0 0 1352.0000610351562 1008.6666259765625" width="1352.0000610351562" height="1008.6666259765625">
  <!-- svg-source:excalidraw -->
  
  <defs>
    <style class="style-fonts">
      @font-face {
        font-family: "Virgil";
        src: url("https://excalidraw.com/Virgil.woff2");
      }
      @font-face {
        font-family: "Cascadia";
        src: url("https://excalidraw.com/Cascadia.woff2");
      }
      @font-face {
        font-family: "Assistant";
        src: url("https://excalidraw.com/Assistant-Regular.woff2");
      }
    </style>
    
  </defs>
  <rect x="0" y="0" width="1352.0000610351562" height="1008.6666259765625" fill="#ffffff"></rect><g stroke-linecap="round" transform="translate(10 10) rotate(0 41.66668701171875 21.000015258789062)"><path d="M32.71 1.26 C40.25 0.23, 50.47 1.12, 58.14 2.61 C65.81 4.1, 74.51 6.62, 78.73 10.2 C82.94 13.78, 84.63 19.84, 83.44 24.09 C82.24 28.34, 77.03 32.96, 71.55 35.72 C66.07 38.48, 58.53 40.07, 50.55 40.65 C42.57 41.22, 31.13 40.59, 23.68 39.16 C16.22 37.74, 9.61 35.38, 5.81 32.09 C2 28.81, 0.14 23.8, 0.84 19.47 C1.55 15.13, 3.61 9.31, 10.05 6.1 C16.49 2.89, 33.17 1, 39.46 0.23 C45.75 -0.54, 47.75 1.12, 47.79 1.48 M52.81 -0.04 C60.59 0.63, 69.78 3.46, 75.06 6.88 C80.34 10.31, 84.16 16.18, 84.51 20.52 C84.87 24.86, 81.8 29.38, 77.21 32.93 C72.62 36.48, 64.88 40.29, 56.98 41.82 C49.09 43.36, 37.95 43.29, 29.85 42.12 C21.76 40.95, 13.32 38.03, 8.43 34.8 C3.53 31.57, 0.69 27.14, 0.46 22.73 C0.22 18.33, 2.85 11.71, 7 8.35 C11.15 4.98, 17.97 3.84, 25.34 2.54 C32.72 1.24, 46.77 0.99, 51.27 0.53 C55.76 0.07, 52.48 -0.53, 52.33 -0.21" stroke="none" stroke-width="0" fill="#1e1e1e"></path><path d="M25.16 1.99 C32.14 0.52, 42.86 0.64, 50.83 1.56 C58.8 2.48, 67.49 4.41, 72.98 7.53 C78.47 10.64, 83.06 16.05, 83.77 20.26 C84.48 24.47, 81.55 29.59, 77.25 32.79 C72.95 35.99, 65.64 38.15, 57.94 39.45 C50.25 40.75, 38.92 41.38, 31.07 40.58 C23.23 39.78, 16.06 37.53, 10.86 34.64 C5.66 31.75, 0.52 27.17, -0.13 23.22 C-0.78 19.27, 2.26 14.48, 6.96 10.95 C11.65 7.41, 23.97 3.75, 28.04 2.01 C32.12 0.27, 31.18 0.19, 31.41 0.51 M31.54 0.09 C38.83 -0.95, 49.64 1.03, 57.33 2.73 C65.03 4.43, 73.61 7.04, 77.72 10.3 C81.83 13.56, 82.95 18.37, 82.02 22.3 C81.08 26.23, 77.51 30.54, 72.12 33.88 C66.73 37.23, 57.55 41.06, 49.68 42.37 C41.8 43.67, 32.23 43.58, 24.88 41.7 C17.54 39.83, 9.6 34.8, 5.61 31.12 C1.63 27.44, 0.11 23.4, 0.96 19.64 C1.82 15.87, 5.58 11.77, 10.74 8.52 C15.91 5.26, 28.23 1.52, 31.95 0.1 C35.68 -1.31, 32.94 -0.29, 33.1 0.03" stroke="#1e1e1e" stroke-width="2" fill="none"></path></g><g stroke-linecap="round" transform="translate(219.33319091796875 10.666656494140625) rotate(0 101.33334350585938 17.5)"><path d="M8.75 0 C47.09 -0.67, 82.22 0.48, 193.92 0 M8.75 0 C53.28 -1.76, 97.8 -0.76, 193.92 0 M193.92 0 C199.06 -0.67, 204.64 2.94, 202.67 8.75 M193.92 0 C201.15 1.96, 203.82 2.52, 202.67 8.75 M202.67 8.75 C202.82 13.31, 203.98 18.61, 202.67 26.25 M202.67 8.75 C203.13 14.83, 202.8 18.67, 202.67 26.25 M202.67 26.25 C201.33 30.59, 199.92 34.9, 193.92 35 M202.67 26.25 C200.72 31.08, 199.08 34.7, 193.92 35 M193.92 35 C130.92 34.62, 71.02 36.8, 8.75 35 M193.92 35 C127.33 34.82, 59.88 34.81, 8.75 35 M8.75 35 C3.31 36.72, -1.45 32.53, 0 26.25 M8.75 35 C3.53 34.57, -0.84 30.73, 0 26.25 M0 26.25 C-1.13 21.83, -0.58 17.2, 0 8.75 M0 26.25 C-0.26 21.36, -0.12 18.02, 0 8.75 M0 8.75 C1.25 2.44, 4.84 1.83, 8.75 0 M0 8.75 C-0.6 0.84, 4.86 -0.03, 8.75 0" stroke="#1e1e1e" stroke-width="2" fill="none"></path></g><g transform="translate(226.78662109375 15.666656494140625) rotate(0 93.87991333007812 12.5)"><text x="93.87991333007812" y="0" font-family="Virgil, Segoe UI Emoji" font-size="20px" fill="#1e1e1e" text-anchor="middle" style="white-space: pre;" direction="ltr" dominant-baseline="text-before-edge">prefetch html SFCs</text></g><g stroke-linecap="round" transform="translate(536.6666870117188 12.6666259765625) rotate(0 99.666748046875 17.5)"><path d="M8.75 0 C77.18 0.35, 149.53 1.79, 190.58 0 M8.75 0 C57.3 0.22, 106.8 1.5, 190.58 0 M190.58 0 C195.94 -0.19, 200.27 3.66, 199.33 8.75 M190.58 0 C197.39 0.49, 199.76 3.56, 199.33 8.75 M199.33 8.75 C198.9 14.01, 198.83 18.59, 199.33 26.25 M199.33 8.75 C199.07 13.1, 199.7 16.75, 199.33 26.25 M199.33 26.25 C198.95 30.92, 197.1 33.94, 190.58 35 M199.33 26.25 C199.77 33.74, 195.37 35.13, 190.58 35 M190.58 35 C142.28 33.08, 96.04 35.41, 8.75 35 M190.58 35 C121.28 35.3, 49.61 36.46, 8.75 35 M8.75 35 C2.69 36.09, -1.77 33.81, 0 26.25 M8.75 35 C0.86 33.56, -1.01 30.14, 0 26.25 M0 26.25 C-0.02 19.4, -0.58 12.15, 0 8.75 M0 26.25 C-0.8 19.91, 0.24 14.64, 0 8.75 M0 8.75 C1.58 3.79, 2.68 -0.84, 8.75 0 M0 8.75 C-1.89 4.03, 2.41 1.19, 8.75 0" stroke="#1e1e1e" stroke-width="2" fill="none"></path></g><g transform="translate(553.3135223388672 17.6666259765625) rotate(0 83.01991271972656 12.5)"><text x="83.01991271972656" y="0" font-family="Virgil, Segoe UI Emoji" font-size="20px" fill="#1e1e1e" text-anchor="middle" style="white-space: pre;" direction="ltr" dominant-baseline="text-before-edge">defineComponents</text></g><g stroke-linecap="round" transform="translate(546.6666870117188 147.99993896484375) rotate(0 98 30)"><path d="M122.5 7.75 C138.86 14.04, 156.4 19.25, 171.5 23.25 M122.5 7.75 C140.29 13.9, 158.48 19.11, 171.5 23.25 M171.5 23.25 C194.78 32.52, 197.11 32.73, 171.5 38.75 M171.5 23.25 C194.22 32.05, 198.15 29.79, 171.5 38.75 M171.5 38.75 C160.45 40.3, 148.85 43.65, 122.5 52.25 M171.5 38.75 C160.66 41.22, 149.04 44.7, 122.5 52.25 M122.5 52.25 C97.87 59.27, 97.28 60.3, 73.5 52.25 M122.5 52.25 C97.41 59.62, 95.79 57.83, 73.5 52.25 M73.5 52.25 C58.66 48.04, 41.15 42.29, 24.5 38.75 M73.5 52.25 C55.53 47.63, 38.96 43.59, 24.5 38.75 M24.5 38.75 C-0.31 30.11, -1.18 31.55, 24.5 23.25 M24.5 38.75 C-1.12 29.07, 0.2 28.98, 24.5 23.25 M24.5 23.25 C43.38 17.62, 60.11 11.19, 73.5 7.75 M24.5 23.25 C33.68 20.4, 44.84 16.32, 73.5 7.75 M73.5 7.75 C97.8 1.73, 97.1 1.72, 122.5 7.75 M73.5 7.75 C97.45 1.59, 96.8 -0.13, 122.5 7.75" stroke="#1e1e1e" stroke-width="2" fill="none"></path></g><g transform="translate(600.7387084960938 167.99993896484375) rotate(0 43.927978515625 10)"><text x="43.927978515625" y="0" font-family="Virgil, Segoe UI Emoji" font-size="16px" fill="#1e1e1e" text-anchor="middle" style="white-space: pre;" direction="ltr" dominant-baseline="text-before-edge">instantiate</text></g><g stroke-linecap="round" transform="translate(280.66668701171875 280.66668701171875) rotate(0 80.33331298828125 17.5)"><path d="M8.75 0 C39.56 -2.35, 73.73 -1.56, 151.92 0 M8.75 0 C58.64 -1.86, 109.88 -2.08, 151.92 0 M151.92 0 C159.45 -0.64, 162.41 2.83, 160.67 8.75 M151.92 0 C157.6 -0.84, 159.84 3.26, 160.67 8.75 M160.67 8.75 C158.99 13.95, 159.46 19.74, 160.67 26.25 M160.67 8.75 C159.93 15.18, 160.45 21.22, 160.67 26.25 M160.67 26.25 C158.79 31.75, 156.87 35.97, 151.92 35 M160.67 26.25 C160.31 31.06, 156.39 35.64, 151.92 35 M151.92 35 C114.21 36.31, 81.21 36.94, 8.75 35 M151.92 35 C98.99 34.41, 46.52 36.27, 8.75 35 M8.75 35 C1.1 36.59, 0.33 31.88, 0 26.25 M8.75 35 C2.69 36.99, -1.04 34.06, 0 26.25 M0 26.25 C-0.22 22.82, 0.08 16.35, 0 8.75 M0 26.25 C-0.66 20.79, -0.15 16.17, 0 8.75 M0 8.75 C0.97 2.59, 4.46 -1.78, 8.75 0 M0 8.75 C-1.49 1.77, 0.86 0.52, 8.75 0" stroke="#1e1e1e" stroke-width="2" fill="none"></path></g><g transform="translate(291.4600601196289 285.66668701171875) rotate(0 69.5399398803711 12.5)"><text x="69.5399398803711" y="0" font-family="Virgil, Segoe UI Emoji" font-size="20px" fill="#1e1e1e" text-anchor="middle" style="white-space: pre;" direction="ltr" dominant-baseline="text-before-edge">createElement</text></g><g stroke-linecap="round" transform="translate(850.6666870117188 307.99993896484375) rotate(0 82.33331298828125 17.5)"><path d="M8.75 0 C57.07 -1.4, 102.82 -2.8, 155.92 0 M8.75 0 C59.06 -0.93, 110.8 -0.27, 155.92 0 M155.92 0 C161.44 -0.89, 163.48 3.47, 164.67 8.75 M155.92 0 C160.63 -1.93, 164.86 0.89, 164.67 8.75 M164.67 8.75 C165.96 15.38, 165.2 20.92, 164.67 26.25 M164.67 8.75 C163.87 13.05, 164.81 15.86, 164.67 26.25 M164.67 26.25 C164.47 33.82, 160.85 36.72, 155.92 35 M164.67 26.25 C164.12 33.67, 160.55 34.87, 155.92 35 M155.92 35 C99.42 34.24, 42.91 33.18, 8.75 35 M155.92 35 C123.94 33.92, 91.76 33.19, 8.75 35 M8.75 35 C1.62 34, -1.79 32.53, 0 26.25 M8.75 35 C2.81 36.19, -0.64 33.86, 0 26.25 M0 26.25 C-1.3 22.43, 0.22 19.84, 0 8.75 M0 26.25 C-0.82 20.08, 0.55 13.9, 0 8.75 M0 8.75 C-0.93 1.63, 3.1 -0.42, 8.75 0 M0 8.75 C-1.39 5.12, 3 0.41, 8.75 0" stroke="#1e1e1e" stroke-width="2" fill="none"></path></g><g transform="translate(859.1500701904297 312.99993896484375) rotate(0 73.84992980957031 12.5)"><text x="73.84992980957031" y="0" font-family="Virgil, Segoe UI Emoji" font-size="20px" fill="#1e1e1e" text-anchor="middle" style="white-space: pre;" direction="ltr" dominant-baseline="text-before-edge">&lt;my-component&gt;</text></g><g stroke-linecap="round" transform="translate(558.6666870117188 426.66668701171875) rotate(0 80.00006103515625 17.5)"><path d="M8.75 0 C63.67 -0.21, 119.76 0.99, 151.25 0 M8.75 0 C51.05 0.06, 92.29 -1.51, 151.25 0 M151.25 0 C158.92 -1.22, 158.8 2.25, 160 8.75 M151.25 0 C158.41 -1.05, 160.29 1.31, 160 8.75 M160 8.75 C159.14 13.04, 160.01 14.4, 160 26.25 M160 8.75 C159.88 15.83, 159.54 22.05, 160 26.25 M160 26.25 C161.62 30.37, 157.96 36.98, 151.25 35 M160 26.25 C160.85 34.17, 158.34 36.37, 151.25 35 M151.25 35 C110.99 38.1, 71.51 38.05, 8.75 35 M151.25 35 C107.04 34.05, 61.16 34.47, 8.75 35 M8.75 35 C1.38 36.4, 0.45 31.11, 0 26.25 M8.75 35 C1.49 33.08, 1.8 34.18, 0 26.25 M0 26.25 C-1 23.7, -0.17 18.48, 0 8.75 M0 26.25 C0.55 20.85, -0.58 15.17, 0 8.75 M0 8.75 C-0.15 4.81, 3.75 0.76, 8.75 0 M0 8.75 C-0.42 0.86, 3.41 0.15, 8.75 0" stroke="#1e1e1e" stroke-width="2" fill="none"></path></g><g transform="translate(569.0568008422852 431.66668701171875) rotate(0 69.60994720458984 12.5)"><text x="69.60994720458984" y="0" font-family="Virgil, Segoe UI Emoji" font-size="20px" fill="#1e1e1e" text-anchor="middle" style="white-space: pre;" direction="ltr" dominant-baseline="text-before-edge">attachShadow</text></g><g stroke-linecap="round"><g transform="translate(88.66668701171875 32) rotate(0 60.33331298828125 -1)"><path d="M1 -1.2 C3.3 -1.48, -5.93 -1.77, 13.83 -1.87 C33.6 -1.97, 101.62 -1.74, 119.6 -1.8 M0.07 0.79 C2.2 0.73, -7.51 -0.07, 12.8 -0.27 C33.11 -0.46, 104.26 -0.22, 121.93 -0.37" stroke="#1e1e1e" stroke-width="2" fill="none"></path></g><g transform="translate(88.66668701171875 32) rotate(0 60.33331298828125 -1)"><path d="M98.46 8.22 C103.54 5.16, 112.83 1.07, 121.93 -0.37 M98.46 8.22 C106.66 5.83, 112.49 2.94, 121.93 -0.37" stroke="#1e1e1e" stroke-width="2" fill="none"></path></g><g transform="translate(88.66668701171875 32) rotate(0 60.33331298828125 -1)"><path d="M98.42 -8.88 C103.5 -6.79, 112.79 -5.73, 121.93 -0.37 M98.42 -8.88 C106.79 -5.86, 112.63 -3.33, 121.93 -0.37" stroke="#1e1e1e" stroke-width="2" fill="none"></path></g></g><mask></mask><g stroke-linecap="round"><g transform="translate(428.66668701171875 27.33331298828125) rotate(0 47.33331298828125 -0.3333282470703125)"><path d="M0.12 0.59 C15.88 0.6, 79.32 0.22, 95.27 0.17 M-1.27 -0.14 C14.31 -0.48, 78.48 -1.28, 94.64 -1.51" stroke="#1e1e1e" stroke-width="2" fill="none"></path></g><g transform="translate(428.66668701171875 27.33331298828125) rotate(0 47.33331298828125 -0.3333282470703125)"><path d="M71.27 7.36 C80.73 5.13, 89.62 2.85, 94.64 -1.51 M71.27 7.36 C79.69 3.74, 88.33 1.06, 94.64 -1.51" stroke="#1e1e1e" stroke-width="2" fill="none"></path></g><g transform="translate(428.66668701171875 27.33331298828125) rotate(0 47.33331298828125 -0.3333282470703125)"><path d="M71.04 -9.74 C80.6 -5.77, 89.58 -1.85, 94.64 -1.51 M71.04 -9.74 C79.45 -6.84, 88.18 -3, 94.64 -1.51" stroke="#1e1e1e" stroke-width="2" fill="none"></path></g></g><mask></mask><g stroke-linecap="round"><g transform="translate(636.5489337854212 54) rotate(0 2.4698117632566436 43.96436594251742)"><path d="M0.51 0.38 C1.12 15.13, 3.04 74.46, 3.91 89.09 M-0.68 -0.46 C0.26 13.93, 5.07 72.57, 6.09 87.58" stroke="#1e1e1e" stroke-width="2" fill="none"></path></g><g transform="translate(636.5489337854212 54) rotate(0 2.4698117632566436 43.96436594251742)"><path d="M-4.21 64.8 C-0.14 70.39, 4.49 80.8, 6.09 87.58 M-4.21 64.8 C-0.08 71.01, 2.84 78.37, 6.09 87.58" stroke="#1e1e1e" stroke-width="2" fill="none"></path></g><g transform="translate(636.5489337854212 54) rotate(0 2.4698117632566436 43.96436594251742)"><path d="M12.84 63.51 C11.42 69.59, 10.54 80.41, 6.09 87.58 M12.84 63.51 C11.51 70.25, 8.98 78.02, 6.09 87.58" stroke="#1e1e1e" stroke-width="2" fill="none"></path></g></g><mask></mask><g stroke-linecap="round"><g transform="translate(540.546532509009 174.73573282058067) rotate(0 -92.97275991919923 48.29879008385029)"><path d="M0.74 0.36 C-30.1 16.39, -153.7 79.92, -184.77 96.09 M-0.33 -0.5 C-31.26 15.7, -154.11 81.37, -185.1 97.36" stroke="#1e1e1e" stroke-width="2" fill="none"></path></g><g transform="translate(540.546532509009 174.73573282058067) rotate(0 -92.97275991919923 48.29879008385029)"><path d="M-168.3 78.85 C-173.18 86.94, -180.08 91.5, -185.1 97.36 M-168.3 78.85 C-173.73 85.95, -180.3 91.9, -185.1 97.36" stroke="#1e1e1e" stroke-width="2" fill="none"></path></g><g transform="translate(540.546532509009 174.73573282058067) rotate(0 -92.97275991919923 48.29879008385029)"><path d="M-160.33 93.98 C-167.79 97.2, -177.29 96.84, -185.1 97.36 M-160.33 93.98 C-168.84 95.59, -178.32 96, -185.1 97.36" stroke="#1e1e1e" stroke-width="2" fill="none"></path></g></g><mask></mask><g stroke-linecap="round"><g transform="translate(755.8568709686497 177.99993896484375) rotate(0 91.36004347068024 61.000030517578125)"><path d="M0.05 -1.17 C30.44 19.16, 153.04 100.45, 183.31 120.92 M-1.39 0.82 C28.81 21.37, 151.77 101.56, 182.68 121.89" stroke="#1e1e1e" stroke-width="2" fill="none"></path></g><g transform="translate(755.8568709686497 177.99993896484375) rotate(0 91.36004347068024 61.000030517578125)"><path d="M158.34 116.17 C165.6 119.32, 175.01 118.81, 182.68 121.89 M158.34 116.17 C164.66 116.83, 171.23 119.45, 182.68 121.89" stroke="#1e1e1e" stroke-width="2" fill="none"></path></g><g transform="translate(755.8568709686497 177.99993896484375) rotate(0 91.36004347068024 61.000030517578125)"><path d="M167.71 101.86 C171.27 110.47, 177.12 115.4, 182.68 121.89 M167.71 101.86 C171.57 106.36, 175.61 112.85, 182.68 121.89" stroke="#1e1e1e" stroke-width="2" fill="none"></path></g></g><mask></mask><g stroke-linecap="round"><g transform="translate(357.33331298828125 326) rotate(0 136.3333740234375 45.666656494140625)"><path d="M-0.28 0.79 C45.02 15.76, 227.39 75.45, 272.7 90.72 M1.78 0.16 C46.84 15.2, 226.42 76.86, 271.77 91.93" stroke="#1e1e1e" stroke-width="2" fill="none"></path></g><g transform="translate(357.33331298828125 326) rotate(0 136.3333740234375 45.666656494140625)"><path d="M246.77 92.5 C257.49 92.39, 264.54 90.28, 271.77 91.93 M246.77 92.5 C256.58 93.03, 266.41 92.69, 271.77 91.93" stroke="#1e1e1e" stroke-width="2" fill="none"></path></g><g transform="translate(357.33331298828125 326) rotate(0 136.3333740234375 45.666656494140625)"><path d="M252.25 76.3 C261.04 82.28, 266.03 86.25, 271.77 91.93 M252.25 76.3 C260 83.08, 267.7 89.01, 271.77 91.93" stroke="#1e1e1e" stroke-width="2" fill="none"></path></g></g><mask></mask><g stroke-linecap="round"><g transform="translate(930.0000610351562 350) rotate(0 -146.3333740234375 32.666656494140625)"><path d="M0.34 0.64 C-48.55 11.63, -244.45 54.44, -293.14 65.4 M-0.94 -0.07 C-50.05 11.17, -245.8 56.19, -294.33 66.97" stroke="#1e1e1e" stroke-width="2" fill="none"></path></g><g transform="translate(930.0000610351562 350) rotate(0 -146.3333740234375 32.666656494140625)"><path d="M-273.31 53.43 C-278.96 57, -286.58 63.52, -294.33 66.97 M-273.31 53.43 C-281.1 57.92, -289.5 63.32, -294.33 66.97" stroke="#1e1e1e" stroke-width="2" fill="none"></path></g><g transform="translate(930.0000610351562 350) rotate(0 -146.3333740234375 32.666656494140625)"><path d="M-269.53 70.11 C-276.3 68.4, -285.12 69.65, -294.33 66.97 M-269.53 70.11 C-278.91 68.16, -288.78 67.09, -294.33 66.97" stroke="#1e1e1e" stroke-width="2" fill="none"></path></g></g><mask></mask><g stroke-linecap="round" transform="translate(565.3333129882812 544) rotate(0 81 17.5)"><path d="M8.75 0 C59.12 1.27, 110.79 1.17, 153.25 0 M8.75 0 C57.94 -2.17, 105.37 -1.86, 153.25 0 M153.25 0 C158.05 1.35, 162.48 4.83, 162 8.75 M153.25 0 C158.47 -1.5, 160.28 4.3, 162 8.75 M162 8.75 C162.57 15.23, 160.72 18.8, 162 26.25 M162 8.75 C161.42 13.9, 162.61 21.12, 162 26.25 M162 26.25 C161.07 32.97, 159.58 33.17, 153.25 35 M162 26.25 C159.73 30.46, 161.37 34.11, 153.25 35 M153.25 35 C122.67 33.72, 92.19 32.52, 8.75 35 M153.25 35 C120.11 34.67, 89.21 36.1, 8.75 35 M8.75 35 C4.22 36.86, -0.78 33.73, 0 26.25 M8.75 35 C3.04 35.38, 2.11 30.77, 0 26.25 M0 26.25 C1.61 19.62, -1.87 15.51, 0 8.75 M0 26.25 C-0.8 19.72, -0.26 13.85, 0 8.75 M0 8.75 C0.87 3.61, 3.84 0.04, 8.75 0 M0 8.75 C0.39 4.84, 3.21 -1.57, 8.75 0" stroke="#1e1e1e" stroke-width="2" fill="none"></path></g><g transform="translate(580.6833648681641 549) rotate(0 65.64994812011719 12.5)"><text x="65.64994812011719" y="0" font-family="Virgil, Segoe UI Emoji" font-size="20px" fill="#1e1e1e" text-anchor="middle" style="white-space: pre;" direction="ltr" dominant-baseline="text-before-edge">change state</text></g><g stroke-linecap="round" transform="translate(546.6665649414062 659.3333129882812) rotate(0 98.00006103515625 30)"><path d="M123.75 7.75 C140.85 13.25, 155.06 18.17, 171.25 23.25 M123.75 7.75 C133.91 10.53, 145.63 14.98, 171.25 23.25 M171.25 23.25 C197.97 29.49, 194.6 31.36, 171.25 38.75 M171.25 23.25 C195.22 29.5, 198.24 31.97, 171.25 38.75 M171.25 38.75 C154.67 41.78, 141.07 46.28, 123.75 52.25 M171.25 38.75 C152.91 44.43, 132.7 49.33, 123.75 52.25 M123.75 52.25 C97.59 60.11, 100.68 61.28, 74.25 52.25 M123.75 52.25 C100.8 60.11, 100.25 58.03, 74.25 52.25 M74.25 52.25 C63.17 47.73, 54.09 47.97, 24.75 38.75 M74.25 52.25 C59.24 47.81, 43.78 43.92, 24.75 38.75 M24.75 38.75 C-1.71 30.08, 0.12 32.75, 24.75 23.25 M24.75 38.75 C1.65 29.13, 2.16 32.47, 24.75 23.25 M24.75 23.25 C38.01 17.79, 54.35 12.23, 74.25 7.75 M24.75 23.25 C44.08 17.14, 62.81 12.12, 74.25 7.75 M74.25 7.75 C100.19 0.3, 97.34 -1.3, 123.75 7.75 M74.25 7.75 C100.11 1.42, 100.37 -1.05, 123.75 7.75" stroke="#1e1e1e" stroke-width="2" fill="none"></path></g><g transform="translate(602.0506286621094 679.3333129882812) rotate(0 42.615966796875 10)"><text x="42.615966796875" y="0" font-family="Virgil, Segoe UI Emoji" font-size="16px" fill="#1e1e1e" text-anchor="middle" style="white-space: pre;" direction="ltr" dominant-baseline="text-before-edge">isAttached</text></g><g stroke-linecap="round" transform="translate(188.00006103515625 788.6666870117188) rotate(0 97.33331298828125 17.5)"><path d="M8.75 0 C61.91 0.18, 114.95 -1.46, 185.92 0 M8.75 0 C73.89 -0.52, 140.67 -0.64, 185.92 0 M185.92 0 C190 1.77, 195.86 3.04, 194.67 8.75 M185.92 0 C192.99 -1.12, 194.25 2.14, 194.67 8.75 M194.67 8.75 C194.47 16.47, 195.15 22.66, 194.67 26.25 M194.67 8.75 C193.97 15.34, 194.39 19.54, 194.67 26.25 M194.67 26.25 C194.12 33.09, 192.76 35.65, 185.92 35 M194.67 26.25 C196.79 31.56, 192.29 36.28, 185.92 35 M185.92 35 C113.66 35.73, 44.37 36.11, 8.75 35 M185.92 35 C146.54 34.47, 104.98 35.77, 8.75 35 M8.75 35 C4.89 33.92, -1.38 32.31, 0 26.25 M8.75 35 C3.08 36.53, 1.8 32.68, 0 26.25 M0 26.25 C-1.74 22.32, -0.47 15.45, 0 8.75 M0 26.25 C-0.3 20.06, 0.88 12.81, 0 8.75 M0 8.75 C0.98 2.38, 2.2 1.08, 8.75 0 M0 8.75 C0.64 2.53, 3.04 0.7, 8.75 0" stroke="#1e1e1e" stroke-width="2" fill="none"></path></g><g transform="translate(201.18343353271484 793.6666870117188) rotate(0 84.14994049072266 12.5)"><text x="84.14994049072266" y="0" font-family="Virgil, Segoe UI Emoji" font-size="20px" fill="#1e1e1e" text-anchor="middle" style="white-space: pre;" direction="ltr" dominant-baseline="text-before-edge">append &amp; attach</text></g><g stroke-linecap="round" transform="translate(891.3333129882812 786.6666259765625) rotate(0 82.66668701171875 17.5)"><path d="M8.75 0 C63.83 -0.7, 116.23 0.92, 156.58 0 M8.75 0 C57.55 -0.93, 104.91 -0.93, 156.58 0 M156.58 0 C161.03 -0.11, 166.07 4.04, 165.33 8.75 M156.58 0 C162.21 0.19, 166.5 4.03, 165.33 8.75 M165.33 8.75 C164.68 14.69, 166.74 22.49, 165.33 26.25 M165.33 8.75 C165.06 12.74, 165.78 17.3, 165.33 26.25 M165.33 26.25 C163.64 33.74, 162.05 34.45, 156.58 35 M165.33 26.25 C163.84 31.85, 162.17 32.9, 156.58 35 M156.58 35 C109.59 34.5, 66.13 37.12, 8.75 35 M156.58 35 C102.15 32.98, 47.18 32.87, 8.75 35 M8.75 35 C3.04 35.61, -0.29 33.33, 0 26.25 M8.75 35 C4.31 33.48, 0.28 31.72, 0 26.25 M0 26.25 C-0.48 21.86, 1.04 17.41, 0 8.75 M0 26.25 C-0.2 21.45, 0.69 15.34, 0 8.75 M0 8.75 C0.24 2.44, 2.87 0.11, 8.75 0 M0 8.75 C-0.16 1.2, 1.96 0.6, 8.75 0" stroke="#1e1e1e" stroke-width="2" fill="none"></path></g><g transform="translate(905.3300704956055 791.6666259765625) rotate(0 68.66992950439453 12.5)"><text x="68.66992950439453" y="0" font-family="Virgil, Segoe UI Emoji" font-size="20px" fill="#1e1e1e" text-anchor="middle" style="white-space: pre;" direction="ltr" dominant-baseline="text-before-edge">removeChildren</text></g><g stroke-linecap="round" transform="translate(888.6668090820312 938.6666259765625) rotate(0 92 30)"><path d="M116.25 7.75 C133.47 15.32, 148.38 19.87, 160.75 23.25 M116.25 7.75 C133.24 13.71, 150.88 19.71, 160.75 23.25 M160.75 23.25 C182.51 30.16, 184.52 30.65, 160.75 38.75 M160.75 23.25 C185.43 30.87, 182.69 32.73, 160.75 38.75 M160.75 38.75 C146.73 44.55, 132.4 46.47, 116.25 52.25 M160.75 38.75 C149.4 42.28, 136.61 46.93, 116.25 52.25 M116.25 52.25 C93.42 58.04, 93.91 59.28, 69.75 52.25 M116.25 52.25 C95.22 61.41, 91.78 59.54, 69.75 52.25 M69.75 52.25 C58.19 48.69, 43.41 44.12, 23.25 38.75 M69.75 52.25 C57.12 47.55, 44.8 44.99, 23.25 38.75 M23.25 38.75 C0.26 30.76, 1.52 30.55, 23.25 23.25 M23.25 38.75 C2.18 32.56, 2.14 30.16, 23.25 23.25 M23.25 23.25 C40.15 17.8, 54.92 11.92, 69.75 7.75 M23.25 23.25 C34.27 18.22, 46.86 14.35, 69.75 7.75 M69.75 7.75 C92.79 1.43, 91.72 -0.67, 116.25 7.75 M69.75 7.75 C94.55 -0.36, 94.07 -0.93, 116.25 7.75" stroke="#1e1e1e" stroke-width="2" fill="none"></path></g><g transform="translate(942.8908386230469 958.6666259765625) rotate(0 37.775970458984375 10)"><text x="37.775970458984375" y="0" font-family="Virgil, Segoe UI Emoji" font-size="16px" fill="#1e1e1e" text-anchor="middle" style="white-space: pre;" direction="ltr" dominant-baseline="text-before-edge">isChanging</text></g><g stroke-linecap="round" transform="translate(1216.0000610351562 941.3333129882812) rotate(0 63 27.333343505859375)"><path d="M41.46 1.47 C50.63 -0.52, 63.41 -0.13, 73.55 0.68 C83.69 1.49, 94.05 3.42, 102.3 6.32 C110.54 9.23, 119.19 13.68, 122.99 18.09 C126.79 22.51, 127.15 28.47, 125.09 32.82 C123.04 37.16, 117.23 40.88, 110.69 44.19 C104.15 47.49, 95.5 50.82, 85.86 52.64 C76.21 54.46, 63.27 55.8, 52.81 55.13 C42.36 54.46, 31.18 51.63, 23.13 48.62 C15.09 45.61, 8.08 41.19, 4.53 37.05 C0.99 32.91, 0.13 28.34, 1.86 23.77 C3.59 19.19, 6.91 13.29, 14.91 9.6 C22.9 5.91, 42.4 3.1, 49.83 1.62 C57.25 0.15, 59.32 0.52, 59.45 0.76 M41.57 0.96 C50.43 -0.64, 63.92 -0.08, 74.57 0.88 C85.23 1.84, 97.64 3.59, 105.5 6.75 C113.36 9.9, 118.71 15.7, 121.72 19.83 C124.74 23.96, 125.21 27.52, 123.58 31.53 C121.96 35.53, 118.59 40.08, 111.97 43.87 C105.34 47.66, 94.08 52.39, 83.83 54.24 C73.59 56.09, 60.8 56.08, 50.5 54.98 C40.19 53.87, 29.9 50.83, 21.99 47.61 C14.08 44.38, 6.5 39.77, 3.06 35.64 C-0.38 31.5, -0.71 26.92, 1.35 22.79 C3.41 18.66, 8.67 14.6, 15.43 10.85 C22.19 7.11, 37.37 1.84, 41.9 0.34 C46.43 -1.17, 41.99 1.42, 42.64 1.82" stroke="none" stroke-width="0" fill="#1e1e1e"></path><path d="M60.92 0.18 C70.77 -0.38, 83 1.28, 92.33 3.3 C101.66 5.31, 111.38 8.48, 116.88 12.25 C122.39 16.03, 124.94 21.13, 125.37 25.92 C125.79 30.72, 124.09 37.02, 119.43 41.04 C114.76 45.06, 106.48 47.72, 97.38 50.05 C88.28 52.37, 75.36 54.81, 64.81 54.98 C54.27 55.15, 43.36 53.24, 34.12 51.06 C24.89 48.88, 15.21 45.72, 9.39 41.89 C3.58 38.06, -0.57 32.49, -0.77 28.09 C-0.97 23.68, 3.19 19.32, 8.19 15.47 C13.19 11.61, 19.65 7.46, 29.22 4.96 C38.79 2.46, 59.01 1.21, 65.61 0.47 C72.22 -0.26, 69.11 0.07, 68.85 0.55 M91.51 3.25 C100.58 5.1, 110.01 9.01, 115.63 12.82 C121.26 16.63, 124.66 21.75, 125.25 26.1 C125.84 30.46, 124.03 34.91, 119.17 38.96 C114.31 43, 104.72 48.01, 96.1 50.37 C87.48 52.73, 77.95 52.98, 67.45 53.14 C56.95 53.29, 42.59 53.3, 33.09 51.3 C23.58 49.3, 15.85 45.08, 10.4 41.16 C4.94 37.23, 0.74 32.29, 0.35 27.73 C-0.05 23.16, 3.38 17.81, 8.03 13.77 C12.67 9.73, 19.69 5.74, 28.24 3.49 C36.79 1.24, 48.87 0.58, 59.33 0.25 C69.8 -0.08, 85.55 1.01, 91.04 1.49 C96.52 1.97, 92.52 2.56, 92.25 3.13" stroke="#1e1e1e" stroke-width="2" fill="none"></path></g><g mask="url(#mask-TwDkKcfZIj1Igv0Pkxy9q)" stroke-linecap="round"><g transform="translate(1075.3667602333637 972.7644626293691) rotate(0 64.14716889903559 0.23931497754131215)"><path d="M-0.27 1.01 C21.29 1.18, 107.85 0.04, 129.43 0.05 M1.79 0.49 C23.29 0.92, 107.88 1.6, 129.08 1.37" stroke="#1e1e1e" stroke-width="2" fill="none"></path></g><g transform="translate(1075.3667602333637 972.7644626293691) rotate(0 64.14716889903559 0.23931497754131215)"><path d="M105.59 9.91 C114.51 9.25, 119.3 6.34, 129.08 1.37 M105.59 9.91 C113.71 6.12, 122.73 4.92, 129.08 1.37" stroke="#1e1e1e" stroke-width="2" fill="none"></path></g><g transform="translate(1075.3667602333637 972.7644626293691) rotate(0 64.14716889903559 0.23931497754131215)"><path d="M105.59 -7.19 C114.38 -2.62, 119.16 -0.32, 129.08 1.37 M105.59 -7.19 C113.79 -4.94, 122.81 -0.1, 129.08 1.37" stroke="#1e1e1e" stroke-width="2" fill="none"></path></g></g><mask id="mask-TwDkKcfZIj1Igv0Pkxy9q"><rect x="0" y="0" fill="#fff" width="1303.661098031435" height="1073.2430925844517"></rect><rect x="1131.345929864821" y="963.0037776069103" fill="#000" width="16.33599853515625" height="20" opacity="1"></rect></mask><g transform="translate(1131.3459298648213 963.0037776069103) rotate(0 8.603869502246198 10.495436330158782)"><text x="8.167999267578125" y="0" font-family="Virgil, Segoe UI Emoji" font-size="16px" fill="#1e1e1e" text-anchor="middle" style="white-space: pre;" direction="ltr" dominant-baseline="text-before-edge">no</text></g><g stroke-linecap="round"><g transform="translate(973.7516705662952 833) rotate(0 3.4207211337136414 49.147728678474664)"><path d="M-0.34 -0.36 C0.61 16.04, 5.02 82.03, 6.29 98.48 M1.69 -1.59 C2.37 15.01, 4.21 83.23, 5.06 100.12" stroke="#1e1e1e" stroke-width="2" fill="none"></path></g><g transform="translate(973.7516705662952 833) rotate(0 3.4207211337136414 49.147728678474664)"><path d="M-4.36 76.96 C-1.61 84.25, 2.63 94.11, 5.06 100.12 M-4.36 76.96 C-2.03 84.09, 1.51 92.21, 5.06 100.12" stroke="#1e1e1e" stroke-width="2" fill="none"></path></g><g transform="translate(973.7516705662952 833) rotate(0 3.4207211337136414 49.147728678474664)"><path d="M12.73 76.33 C9.45 83.79, 7.65 93.87, 5.06 100.12 M12.73 76.33 C9.79 83.61, 8.07 91.92, 5.06 100.12" stroke="#1e1e1e" stroke-width="2" fill="none"></path></g></g><mask></mask><g stroke-linecap="round"><g transform="translate(638.0000610351562 472) rotate(0 1.33331298828125 32.33332824707031)"><path d="M1.03 -0.94 C1.5 9.84, 1.68 53.34, 1.81 64.18 M0.1 1.17 C1.05 12.17, 3.39 54.81, 4.06 65.47" stroke="#1e1e1e" stroke-width="2" fill="none"></path></g><g transform="translate(638.0000610351562 472) rotate(0 1.33331298828125 32.33332824707031)"><path d="M-5.86 42.52 C-5.42 45.9, -2.53 50.72, 4.06 65.47 M-5.86 42.52 C-2.76 47.58, -1.28 54.11, 4.06 65.47" stroke="#1e1e1e" stroke-width="2" fill="none"></path></g><g transform="translate(638.0000610351562 472) rotate(0 1.33331298828125 32.33332824707031)"><path d="M11.21 41.51 C8 45.25, 7.24 50.29, 4.06 65.47 M11.21 41.51 C9.99 46.83, 7.16 53.61, 4.06 65.47" stroke="#1e1e1e" stroke-width="2" fill="none"></path></g></g><mask></mask><g stroke-linecap="round"><g transform="translate(639.3333129882812 586.6666564941406) rotate(0 1.3333740234375 31.333328247070312)"><path d="M-1.05 0.03 C-0.34 10.42, 2.54 52.93, 3.15 63.42 M0.6 -1.01 C1.29 9.56, 2.26 50.78, 2.46 61.69" stroke="#1e1e1e" stroke-width="2" fill="none"></path></g><g transform="translate(639.3333129882812 586.6666564941406) rotate(0 1.3333740234375 31.333328247070312)"><path d="M-6.61 38.39 C-4.47 44.11, -1.38 48.03, 2.46 61.69 M-6.61 38.39 C-4.42 45.23, -0.16 52.85, 2.46 61.69" stroke="#1e1e1e" stroke-width="2" fill="none"></path></g><g transform="translate(639.3333129882812 586.6666564941406) rotate(0 1.3333740234375 31.333328247070312)"><path d="M10.49 38.02 C9.08 43.66, 8.63 47.66, 2.46 61.69 M10.49 38.02 C7.08 44.9, 5.74 52.64, 2.46 61.69" stroke="#1e1e1e" stroke-width="2" fill="none"></path></g></g><mask></mask><g mask="url(#mask-q5K54clFx0ynLiHYlD0Qo)" stroke-linecap="round"><g transform="translate(740.460593082782 694) rotate(0 109.45376206279457 40.666656494140625)"><path d="M1.11 0.06 C37.76 13.77, 183.02 68.61, 219.26 82.31 M0.23 -0.96 C36.82 12.42, 182.27 67.14, 218.5 80.7" stroke="#1e1e1e" stroke-width="2" fill="none"></path></g><g transform="translate(740.460593082782 694) rotate(0 109.45376206279457 40.666656494140625)"><path d="M193.5 80.45 C199.67 80.87, 207.27 79.76, 218.5 80.7 M193.5 80.45 C203.31 80.98, 212 81.11, 218.5 80.7" stroke="#1e1e1e" stroke-width="2" fill="none"></path></g><g transform="translate(740.460593082782 694) rotate(0 109.45376206279457 40.666656494140625)"><path d="M199.51 64.44 C204.23 68.81, 210.37 71.58, 218.5 80.7 M199.51 64.44 C206.94 70.99, 213.36 77.17, 218.5 80.7" stroke="#1e1e1e" stroke-width="2" fill="none"></path></g></g><mask id="mask-q5K54clFx0ynLiHYlD0Qo"><rect x="0" y="0" fill="#fff" width="1059.3681172083711" height="875.3333129882812"></rect><rect x="837.4423626529006" y="724.6666564941406" fill="#000" width="24.943984985351562" height="20" opacity="1"></rect></mask><g transform="translate(837.4423626529006 724.6666564941406) rotate(0 12.763112833746732 10.00998383474996)"><text x="12.471992492675781" y="0" font-family="Virgil, Segoe UI Emoji" font-size="16px" fill="#1e1e1e" text-anchor="middle" style="white-space: pre;" direction="ltr" dominant-baseline="text-before-edge">yes</text></g><g mask="url(#mask-YObO56mvGa3NFcifmbCRN)" stroke-linecap="round"><g transform="translate(542.3417497971482 687.0596667393506) rotate(0 -134.9798580777457 44.80351013618406)"><path d="M-1.14 -1 C-46.13 14.01, -225.44 75.1, -270.29 90.13 M0.47 1.08 C-44.69 15.73, -226.14 73.42, -271.4 88.29" stroke="#1e1e1e" stroke-width="2" fill="none"></path></g><g transform="translate(542.3417497971482 687.0596667393506) rotate(0 -134.9798580777457 44.80351013618406)"><path d="M-251.67 72.94 C-258.77 76.44, -261.65 80.8, -271.4 88.29 M-251.67 72.94 C-256.55 77.26, -262.44 80.56, -271.4 88.29" stroke="#1e1e1e" stroke-width="2" fill="none"></path></g><g transform="translate(542.3417497971482 687.0596667393506) rotate(0 -134.9798580777457 44.80351013618406)"><path d="M-246.42 89.22 C-254.97 88.18, -259.3 88.06, -271.4 88.29 M-246.42 89.22 C-252.68 89.27, -259.96 88.26, -271.4 88.29" stroke="#1e1e1e" stroke-width="2" fill="none"></path></g></g><mask id="mask-YObO56mvGa3NFcifmbCRN"><rect x="0" y="0" fill="#fff" width="912.3014659526395" height="876.6666870117188"></rect><rect x="399.19389245182447" y="721.8631768755347" fill="#000" width="16.33599853515625" height="20" opacity="1"></rect></mask><g transform="translate(399.19389245182447 721.8631768755347) rotate(0 7.679627841757508 9.761962993442978)"><text x="8.167999267578125" y="0" font-family="Virgil, Segoe UI Emoji" font-size="16px" fill="#1e1e1e" text-anchor="middle" style="white-space: pre;" direction="ltr" dominant-baseline="text-before-edge">no</text></g><g mask="url(#mask-ceYE1elfSDkxma2CxI3wC)" stroke-linecap="round"><g transform="translate(390.0000610351565 805.4712180005731) rotate(0 244.6666259765624 -1.6328326543073217)"><path d="M-0.37 0.61 C81.05 0.02, 407.14 -2.51, 488.56 -3.33 M1.63 -0.12 C83.44 -0.52, 409.4 -1.26, 490.87 -1.83" stroke="#1e1e1e" stroke-width="2" fill="none"></path></g><g transform="translate(390.0000610351565 805.4712180005731) rotate(0 244.6666259765624 -1.6328326543073217)"><path d="M467.41 6.82 C475.47 3, 481.39 -0.27, 490.87 -1.83 M467.41 6.82 C472.22 3.96, 478.39 3.55, 490.87 -1.83" stroke="#1e1e1e" stroke-width="2" fill="none"></path></g><g transform="translate(390.0000610351565 805.4712180005731) rotate(0 244.6666259765624 -1.6328326543073217)"><path d="M467.34 -10.28 C475.44 -8.95, 481.39 -7.09, 490.87 -1.83 M467.34 -10.28 C472.1 -9.51, 478.28 -6.29, 490.87 -1.83" stroke="#1e1e1e" stroke-width="2" fill="none"></path></g></g><mask id="mask-ceYE1elfSDkxma2CxI3wC"><rect x="0" y="0" fill="#fff" width="979.3333129882812" height="908.7368833091878"></rect><rect x="595.1867065429688" y="793.8383853462658" fill="#000" width="78.9599609375" height="20" opacity="1"></rect></mask><g transform="translate(595.1867065429688 793.8383853462658) rotate(0 40.05968883524196 10.271471984684467)"><text x="39.47998046875" y="0" font-family="Virgil, Segoe UI Emoji" font-size="16px" fill="#1e1e1e" text-anchor="middle" style="white-space: pre;" direction="ltr" dominant-baseline="text-before-edge">disconnect</text></g><g mask="url(#mask-gA9fv1P5mPRGY47LFZrRJ)" stroke-linecap="round"><g transform="translate(879.7612998670311 968.2580134076973) rotate(0 -293.5892592884427 -66.96231969212988)"><path d="M-0.23 -0.85 C-98.19 -23.19, -490.59 -110.69, -588.36 -133.04 M-1.81 1.32 C-99.36 -20.83, -488.66 -112.12, -586.26 -134.69" stroke="#1e1e1e" stroke-width="2" fill="none"></path></g><g transform="translate(879.7612998670311 968.2580134076973) rotate(0 -293.5892592884427 -66.96231969212988)"><path d="M-561.44 -137.69 C-569 -138.95, -572.27 -135.68, -586.26 -134.69 M-561.44 -137.69 C-566.74 -137.3, -572.22 -136.2, -586.26 -134.69" stroke="#1e1e1e" stroke-width="2" fill="none"></path></g><g transform="translate(879.7612998670311 968.2580134076973) rotate(0 -293.5892592884427 -66.96231969212988)"><path d="M-565.32 -121.04 C-572.05 -126.43, -574.37 -127.3, -586.26 -134.69 M-565.32 -121.04 C-569.89 -124.24, -574.54 -126.75, -586.26 -134.69" stroke="#1e1e1e" stroke-width="2" fill="none"></path></g></g><mask id="mask-gA9fv1P5mPRGY47LFZrRJ"><rect x="0" y="0" fill="#fff" width="1566.9398184439165" height="1202.182652791957"></rect><rect x="573.7000480859124" y="891.2956937155675" fill="#000" width="24.943984985351562" height="20" opacity="1"></rect></mask><g transform="translate(573.7000480859126 891.2956937155673) rotate(0 11.768912379443691 10.276188264591724)"><text x="12.471992492675781" y="0" font-family="Virgil, Segoe UI Emoji" font-size="16px" fill="#1e1e1e" text-anchor="middle" style="white-space: pre;" direction="ltr" dominant-baseline="text-before-edge">yes</text></g><g stroke-linecap="round"><g transform="translate(229.5110284135178 776.6666870117188) rotate(0 164.91114228738172 -108.33334350585938)"><path d="M0.33 0.99 C7.15 -28.45, -14.37 -141.37, 40.48 -177.48 C95.33 -213.58, 281.23 -208.92, 329.44 -215.64 M-0.95 0.47 C5.81 -28.71, -15.03 -139.69, 39.88 -176.01 C94.78 -212.33, 280.13 -210.56, 328.48 -217.45" stroke="#1e1e1e" stroke-width="2" fill="none"></path></g><g transform="translate(229.5110284135178 776.6666870117188) rotate(0 164.91114228738172 -108.33334350585938)"><path d="M305.64 -207.28 C313.36 -208.91, 317.46 -213.31, 328.48 -217.45 M305.64 -207.28 C314.21 -211.45, 324.08 -214.84, 328.48 -217.45" stroke="#1e1e1e" stroke-width="2" fill="none"></path></g><g transform="translate(229.5110284135178 776.6666870117188) rotate(0 164.91114228738172 -108.33334350585938)"><path d="M304.45 -224.34 C312.37 -221.5, 316.78 -221.42, 328.48 -217.45 M304.45 -224.34 C313.47 -221.92, 323.8 -218.74, 328.48 -217.45" stroke="#1e1e1e" stroke-width="2" fill="none"></path></g></g><mask></mask></svg>